# xmcd CD database file
#
# Track frame offsets:
#	194
#	23375
#	41606
#	57764
#	75138
#	86093
#	102326
#	125641
#	150540
#	174031
#	196026
#	221055
#
# Disc length: 3259 seconds
#
# Revision: 0
# Processed by: cddbd v1.4PL0 Copyright (c) Steve Scherf et al.
# Submitted via: CDex 1.50beta8
#
DISCID=850cb90c
DTITLE=Checkfield - Surrounded
DYEAR=2002
DGENRE=New Age
TTITLE0=Through The Lens
TTITLE1=Grasslands
TTITLE2=Flowers
TTITLE3=Clockwork
TTITLE4=Shennandoa
TTITLE5=Back Porch Kauai
TTITLE6=Spirit
TTITLE7=The Good Brown Earth
TTITLE8=A Sailor's Lament
TTITLE9=Distant Thunder
TTITLE10=Going Home
TTITLE11=Live At Five
EXTD=YEAR: 2002
EXTT0=
EXTT1=
EXTT2=
EXTT3=
EXTT4=
EXTT5=
EXTT6=
EXTT7=
EXTT8=
EXTT9=
EXTT10=
EXTT11=
PLAYORDER=
